<svg xmlns="http://www.w3.org/2000/svg" data-name="Layer 1" viewBox="0 0 95 118.75" x="0px" y="0px" ><path fill="#00BBC3" d="M29.212,17.251a1.185,1.185,0,1,1,2.369,0c0,.843-.734,1.911-1.185,1.911S29.212,18.094,29.212,17.251ZM19.224,6.12a4.752,4.752,0,0,1,9.285,0H77.8V1H9.475V86.277h5.119V8.724a2.6,2.6,0,0,1,2.6-2.6Zm2.48,2.6v6.351a1.03,1.03,0,0,0,.415.96,1.947,1.947,0,0,0,1.1.272V10.026h0a1.3,1.3,0,0,1-1.3-1.3H21.7ZM30.4,24.911a4.623,4.623,0,0,0-4.262,2.866h8.525A4.624,4.624,0,0,0,30.4,24.911ZM23.867,5.452a1.849,1.849,0,0,1,1.414.668h.493a2.171,2.171,0,0,0-3.814,0h.492A1.851,1.851,0,0,1,23.867,5.452ZM71.742,25.111H85.525V94H17.2V35.714a7.8,7.8,0,0,0,5.235,2.01H38.36A7.848,7.848,0,0,0,46.2,29.885V13.958a7.807,7.807,0,0,0-2.01-5.234H69.138V22.507A2.6,2.6,0,0,0,71.742,25.111ZM64.587,23.37a1.3,1.3,0,0,0,1.3,1.3h1.092a1.3,1.3,0,1,0,0-2.6H65.889A1.3,1.3,0,0,0,64.587,23.37Zm-17.063,0a1.3,1.3,0,0,0,1.3,1.3H61.579a1.3,1.3,0,1,0,0-2.6H48.826A1.3,1.3,0,0,0,47.524,23.37Zm0,7.033a1.3,1.3,0,0,0,1.3,1.3H52.66a1.3,1.3,0,1,0,0-2.6H48.826A1.3,1.3,0,0,0,47.524,30.4ZM36.889,40.571a1.3,1.3,0,0,0,2.6,0v-.732a1.3,1.3,0,0,0-2.6,0Zm-5.2,0a1.3,1.3,0,0,0,2.6,0v-.732a1.3,1.3,0,0,0-2.6,0Zm-5.2,0a1.3,1.3,0,1,0,2.6,0v-.732a1.3,1.3,0,0,0-2.6,0Zm-3.894,1.3a1.3,1.3,0,0,0,1.3-1.3v-.732a1.3,1.3,0,0,0-2.6,0v.732A1.3,1.3,0,0,0,22.6,41.873ZM25.186,53.1H50.7a2.883,2.883,0,0,0,2.879-2.88V47.562a2.883,2.883,0,0,0-2.879-2.88H25.186a2.883,2.883,0,0,0-2.88,2.88v2.653A2.883,2.883,0,0,0,25.186,53.1Zm18.7,19.262a1.3,1.3,0,0,0,1.3,1.3H70.249a1.3,1.3,0,1,0,0-2.6H45.184A1.3,1.3,0,0,0,43.882,72.357Zm1.3-7.943H60.111a1.3,1.3,0,0,0,0-2.6H45.184a1.3,1.3,0,0,0,0,2.6Zm26.367-5.682a1.3,1.3,0,0,0-1.3-1.3H45.184a1.3,1.3,0,0,0,0,2.6H70.249A1.3,1.3,0,0,0,71.551,58.732ZM39.964,74.166A4.431,4.431,0,1,0,35.533,78.6,4.435,4.435,0,0,0,39.964,74.166Zm0-13.624a4.431,4.431,0,1,0-4.431,4.43A4.436,4.436,0,0,0,39.964,60.542Zm5.22,17.5H60.111a1.3,1.3,0,0,0,0-2.6H45.184a1.3,1.3,0,0,0,0,2.6Zm17.057,5.347a1.3,1.3,0,1,0-2.6,0v.742a1.3,1.3,0,0,0,2.6,0Zm5.272,0a1.3,1.3,0,0,0-2.6,0v.742a1.3,1.3,0,0,0,2.6,0Zm5.272,0a1.3,1.3,0,1,0-2.6,0v.742a1.3,1.3,0,1,0,2.6,0Zm5.273,0a1.3,1.3,0,0,0-2.6,0v.742a1.3,1.3,0,0,0,2.6,0Zm0-11.028a1.3,1.3,0,0,0-1.3-1.3h-1.7a1.3,1.3,0,0,0,0,2.6h1.7A1.3,1.3,0,0,0,78.058,72.357Zm0-13.625a1.3,1.3,0,0,0-1.3-1.3h-1.7a1.3,1.3,0,0,0,0,2.6h1.7A1.3,1.3,0,0,0,78.058,58.732Zm0-11.17a2.883,2.883,0,0,0-2.88-2.88H61.071a2.883,2.883,0,0,0-2.88,2.88v2.653a2.883,2.883,0,0,0,2.88,2.88H75.178a2.883,2.883,0,0,0,2.88-2.88Zm0-10.126a1.3,1.3,0,0,0-1.3-1.3H48.826a1.3,1.3,0,0,0,0,2.6h27.93A1.3,1.3,0,0,0,78.058,37.436Zm-1.3-8.335H56.971a1.3,1.3,0,0,0,0,2.6H76.756a1.3,1.3,0,1,0,0-2.6ZM75.178,47.286H61.071a.28.28,0,0,0-.276.276v2.653a.28.28,0,0,0,.276.276H75.178a.28.28,0,0,0,.276-.276V47.562A.28.28,0,0,0,75.178,47.286ZM71.742,22.507H85.525L71.742,8.723ZM19.1,8.724v6.351a3.634,3.634,0,0,0,1.544,3.106,4.456,4.456,0,0,0,2.526.729,5.146,5.146,0,0,0,1.816-.323,1.3,1.3,0,0,0,.835-1.215V8.724h.208v4.191a1.3,1.3,0,0,0,2.6,0V8.724H38.36A5.25,5.25,0,0,1,43.6,13.958V29.885A5.251,5.251,0,0,1,38.36,35.12H22.433A5.251,5.251,0,0,1,17.2,29.885V8.724Zm7.508,8.527c0,2.088,1.655,4.515,3.788,4.515s3.789-2.427,3.789-4.515a3.789,3.789,0,1,0-7.577,0ZM23.553,29.966a1.3,1.3,0,0,0,.954.415H36.286a1.3,1.3,0,0,0,1.3-1.4,7.208,7.208,0,0,0-14.376,0A1.306,1.306,0,0,0,23.553,29.966ZM75.424,8.724l10.1,10.1V8.724ZM35.533,58.715a1.827,1.827,0,1,0,1.827,1.827A1.829,1.829,0,0,0,35.533,58.715Zm15.44-8.5V47.562a.28.28,0,0,0-.275-.276H25.186a.28.28,0,0,0-.276.276v2.653a.28.28,0,0,0,.276.276H50.7A.28.28,0,0,0,50.973,50.215ZM35.533,72.34a1.827,1.827,0,1,0,1.827,1.826A1.828,1.828,0,0,0,35.533,72.34Z"/></svg>